<svg width="539" height="152" viewBox="0 0 539 152" fill="none" xmlns="http://www.w3.org/2000/svg">
<path d="M169.166 48.691C172.43 48.695 175.31 49.3546 177.804 50.6696C180.298 51.9527 182.232 53.8431 183.605 56.3407C185.01 58.8065 185.71 61.7513 185.706 65.1753L185.684 83.0793L174.356 83.0654L174.365 76.2974L163.709 76.2843L163.7 83.0523L152.564 83.0387L152.586 65.1347C152.59 61.7107 153.282 58.7675 154.661 56.3052C156.072 53.811 158.026 51.9254 160.524 50.6484C163.022 49.3395 165.902 48.687 169.166 48.691ZM174.375 67.7534L174.379 64.2014C174.382 62.1214 173.888 60.5528 172.897 59.4956C171.939 58.4064 170.659 57.8609 169.059 57.8589C167.459 57.8569 166.163 58.3993 165.169 59.4861C164.208 60.5409 163.726 62.1084 163.723 64.1884L163.719 67.7404L174.375 67.7534ZM200.881 59.674C202.803 57.4683 205.637 56.3678 209.381 56.3724L209.369 65.9724C208.505 65.8433 207.705 65.7783 206.969 65.7774C203.257 65.7729 201.399 67.6586 201.394 71.4346L201.38 83.0986L190.532 83.0853L190.564 56.8293L200.884 56.842L200.881 59.674ZM230.472 82.2223C228.838 83.1483 226.614 83.6096 223.798 83.6061C220.118 83.6016 217.287 82.7181 215.305 80.9557C213.323 79.1612 212.335 76.488 212.339 72.936L212.366 50.952L223.214 50.9654L223.205 58.3094L228.581 58.3159L228.571 66.2359L223.195 66.2293L223.187 72.8533C223.186 73.6533 223.393 74.2776 223.809 74.7261C224.224 75.1746 224.768 75.3993 225.44 75.4001C226.368 75.4012 227.184 75.1622 227.889 74.6831L230.472 82.2223ZM233.22 56.8816L244.068 56.895L244.036 83.1509L233.188 83.1376L233.22 56.8816ZM238.647 54.7763C236.695 54.7739 235.112 54.26 233.897 53.2345C232.714 52.177 232.124 50.8483 232.126 49.2483C232.128 47.6483 232.721 46.337 233.906 45.3145C235.124 44.26 236.708 43.7339 238.66 43.7363C240.644 43.7387 242.228 44.2367 243.411 45.2301C244.593 46.2236 245.184 47.5043 245.182 49.0723C245.18 50.7363 244.586 52.1116 243.401 53.1981C242.216 54.2527 240.631 54.7787 238.647 54.7763ZM259.116 83.6494C256.876 83.6467 254.668 83.404 252.493 82.9213C250.317 82.4386 248.558 81.8125 247.215 81.0428L250.2 73.8945C251.415 74.632 252.854 75.2098 254.518 75.6278C256.181 76.0458 257.797 76.2558 259.365 76.2577C260.613 76.2593 261.477 76.1643 261.957 75.9729C262.469 75.7496 262.726 75.4299 262.726 75.0139C262.727 74.5979 262.407 74.3095 261.767 74.1487C261.16 73.9879 260.152 73.8267 258.744 73.665C256.6 73.4063 254.777 73.0841 253.273 72.6983C251.77 72.2804 250.443 71.4948 249.292 70.3414C248.173 69.188 247.615 67.5393 247.618 65.3953C247.62 63.6993 248.134 62.1799 249.16 60.8372C250.185 59.4945 251.707 58.4243 253.724 57.6268C255.773 56.8293 258.221 56.4323 261.069 56.4358C263.053 56.4383 264.989 56.6326 266.876 57.0189C268.796 57.3733 270.427 57.9033 271.77 58.609L268.786 65.7573C266.483 64.4745 263.956 63.8314 261.204 63.828C258.836 63.8251 257.652 64.2396 257.651 65.0716C257.65 65.4876 257.97 65.792 258.609 65.9848C259.249 66.1456 260.257 66.3068 261.633 66.4685C263.776 66.7272 265.584 67.0654 267.056 67.4832C268.559 67.901 269.87 68.6866 270.989 69.84C272.139 70.9934 272.713 72.6421 272.711 74.7861C272.709 76.4181 272.195 77.9055 271.169 79.2482C270.143 80.591 268.606 81.6611 266.557 82.4586C264.508 83.2561 262.028 83.653 259.116 83.6494ZM304.817 56.9695L304.785 83.2255L294.465 83.2128L294.468 81.0528C292.897 82.8109 290.496 83.688 287.264 83.684C284.96 83.6812 282.833 83.1346 280.882 82.0442C278.964 80.9218 277.43 79.3199 276.28 77.2385C275.163 75.1571 274.606 72.7564 274.609 70.0364C274.612 67.3164 275.175 64.9331 276.298 62.8865C277.452 60.8079 278.99 59.2258 280.912 58.1402C282.865 57.0226 284.994 56.4652 287.298 56.468C290.21 56.4716 292.433 57.2263 293.967 58.7322L293.969 56.9562L304.817 56.9695ZM289.867 75.2392C291.115 75.2407 292.139 74.794 292.94 73.8989C293.741 72.9719 294.143 71.6924 294.145 70.0604C294.147 68.4284 293.749 67.1639 292.95 66.267C292.151 65.37 291.127 64.9207 289.879 64.9192C288.631 64.9177 287.607 65.3644 286.806 66.2594C286.005 67.1544 285.603 68.4179 285.601 70.0499C285.599 71.6819 285.997 72.9624 286.796 73.8914C287.595 74.7884 288.619 75.2376 289.867 75.2392ZM327.867 56.5178C331.099 56.5218 333.69 57.5009 335.639 59.4553C337.621 61.4098 338.609 64.355 338.605 68.291L338.586 83.267L327.738 83.2537L327.754 70.1497C327.758 67.1417 326.688 65.6364 324.544 65.6337C323.328 65.6322 322.335 66.063 321.566 66.9261C320.829 67.7572 320.46 69.0847 320.457 70.9087L320.442 83.2447L309.594 83.2314L309.626 56.9754L319.946 56.9881L319.943 59.5801C320.969 58.5573 322.154 57.7908 323.498 57.2804C324.843 56.7701 326.299 56.5159 327.867 56.5178ZM343.33 57.0168L354.178 57.0301L354.145 83.2861L343.297 83.2728L343.33 57.0168ZM348.756 54.9114C346.804 54.909 345.221 54.3951 344.006 53.3696C342.823 52.3122 342.233 50.9834 342.235 49.3834C342.237 47.7834 342.831 46.4722 344.016 45.4496C345.233 44.3951 346.818 43.869 348.77 43.8714C350.754 43.8739 352.337 44.3718 353.52 45.3653C354.703 46.3587 355.293 47.6395 355.291 49.2075C355.289 50.8714 354.695 52.2467 353.51 53.3333C352.325 54.3878 350.74 54.9139 348.756 54.9114ZM373.795 75.7742C374.947 75.7756 375.907 75.6328 376.675 75.3457C377.476 75.0587 378.34 74.5638 379.269 73.8609L384.926 79.5798C382.299 82.3926 378.473 83.7959 373.449 83.7898C370.281 83.7859 367.498 83.2065 365.099 82.0515C362.701 80.8646 360.847 79.2303 359.537 77.1487C358.228 75.0671 357.575 72.7303 357.578 70.1383C357.581 67.5143 358.24 65.1791 359.554 63.1327C360.869 61.0543 362.663 59.4405 364.936 58.2913C367.242 57.1421 369.818 56.5693 372.666 56.5728C375.258 56.576 377.642 57.1069 379.816 58.1656C381.991 59.1922 383.717 60.7303 384.995 62.7799C386.272 64.7975 386.909 67.2143 386.906 70.0303L368.95 73.4642C369.748 75.0012 371.363 75.7712 373.795 75.7742ZM372.705 63.9648C371.457 63.9633 370.433 64.33 369.632 65.0651C368.863 65.8001 368.398 66.8875 368.236 68.3274L376.638 66.7057C376.351 65.8733 375.856 65.2167 375.152 64.7358C374.481 64.223 373.665 63.966 372.705 63.9648Z" fill="#F44336"/>
<path d="M216.569 100.474L219.329 100.478L219.326 102.878L216.646 102.875L216.636 110.995L213.516 110.991L213.53 99.9907C213.531 98.7641 213.893 97.7912 214.613 97.0721C215.348 96.353 216.375 95.9942 217.695 95.9959C218.161 95.9964 218.601 96.0503 219.015 96.1575C219.441 96.2513 219.794 96.3918 220.074 96.5788L219.251 98.8378C218.892 98.584 218.472 98.4568 217.992 98.4562C217.045 98.4551 216.571 98.9745 216.57 100.014L216.569 100.474ZM225.863 111.166C224.729 111.165 223.71 110.93 222.804 110.462C221.911 109.981 221.212 109.32 220.706 108.48C220.2 107.639 219.948 106.685 219.95 105.619C219.951 104.552 220.205 103.599 220.713 102.76C221.221 101.92 221.922 101.268 222.815 100.802C223.723 100.323 224.743 100.085 225.876 100.086C227.01 100.087 228.023 100.329 228.915 100.81C229.808 101.277 230.507 101.932 231.013 102.772C231.519 103.613 231.771 104.566 231.77 105.633C231.768 106.7 231.514 107.653 231.006 108.492C230.498 109.332 229.798 109.991 228.904 110.47C228.01 110.935 226.996 111.167 225.863 111.166ZM225.866 108.606C226.666 108.607 227.32 108.341 227.827 107.808C228.348 107.262 228.608 106.536 228.61 105.629C228.611 104.723 228.352 104.002 227.832 103.468C227.326 102.921 226.673 102.647 225.873 102.646C225.073 102.645 224.413 102.917 223.892 103.463C223.372 103.996 223.111 104.716 223.11 105.623C223.108 106.529 223.368 107.256 223.887 107.803C224.406 108.337 225.066 108.605 225.866 108.606ZM236.84 101.679C237.214 101.16 237.714 100.767 238.341 100.501C238.982 100.235 239.715 100.103 240.542 100.104L240.538 102.984C240.192 102.957 239.958 102.943 239.838 102.943C238.945 102.942 238.245 103.194 237.737 103.7C237.23 104.193 236.976 104.94 236.975 105.94L236.968 111.02L233.848 111.016L233.862 100.256L236.842 100.259L236.84 101.679ZM248.363 97.0335L251.603 97.0375L251.589 108.397L258.609 108.406L258.606 111.046L248.346 111.033L248.363 97.0335ZM271.051 100.301L271.038 111.061L268.058 111.058L268.059 109.818C267.285 110.75 266.164 111.215 264.698 111.214C263.684 111.212 262.765 110.985 261.939 110.53C261.126 110.076 260.487 109.428 260.021 108.588C259.555 107.747 259.323 106.774 259.325 105.667C259.326 104.56 259.56 103.587 260.028 102.748C260.496 101.908 261.137 101.263 261.951 100.81C262.778 100.358 263.698 100.132 264.711 100.134C266.085 100.135 267.157 100.57 267.93 101.438L267.931 100.298L271.051 100.301ZM265.241 108.654C266.028 108.655 266.681 108.389 267.202 107.857C267.723 107.311 267.983 106.584 267.985 105.678C267.986 104.771 267.727 104.051 267.207 103.517C266.688 102.969 266.035 102.695 265.248 102.694C264.448 102.693 263.788 102.966 263.267 103.512C262.747 104.044 262.486 104.764 262.485 105.671C262.483 106.577 262.743 107.304 263.262 107.852C263.781 108.386 264.441 108.653 265.241 108.654ZM276.918 101.729C277.292 101.209 277.792 100.816 278.419 100.55C279.06 100.285 279.793 100.152 280.62 100.153L280.616 103.033C280.27 103.006 280.036 102.992 279.916 102.992C279.023 102.991 278.323 103.244 277.816 103.75C277.308 104.242 277.054 104.989 277.053 105.989L277.047 111.069L273.927 111.065L273.94 100.305L276.92 100.309L276.918 101.729ZM293.297 100.329L293.284 111.089L290.304 111.085L290.306 109.845C289.531 110.777 288.41 111.243 286.944 111.241C285.93 111.24 285.011 111.012 284.185 110.557C283.372 110.103 282.733 109.456 282.267 108.615C281.801 107.775 281.569 106.801 281.571 105.694C281.572 104.588 281.807 103.615 282.274 102.775C282.742 101.936 283.383 101.29 284.197 100.837C285.024 100.385 285.944 100.16 286.957 100.161C288.331 100.163 289.404 100.597 290.176 101.465L290.177 100.325L293.297 100.329ZM287.487 108.682C288.274 108.682 288.927 108.417 289.448 107.884C289.969 107.338 290.229 106.612 290.231 105.705C290.232 104.798 289.973 104.078 289.453 103.544C288.934 102.997 288.281 102.722 287.494 102.722C286.694 102.721 286.034 102.993 285.513 103.539C284.993 104.072 284.732 104.791 284.731 105.698C284.73 106.605 284.989 107.332 285.508 107.879C286.027 108.413 286.687 108.681 287.487 108.682ZM306.866 100.345L302.313 111.1L299.093 111.096L294.586 100.33L297.806 100.334L300.777 107.658L303.866 100.342L306.866 100.345ZM313.256 108.773C313.816 108.774 314.309 108.694 314.736 108.535C315.176 108.362 315.583 108.096 315.957 107.736L317.615 109.538C316.6 110.697 315.119 111.275 313.173 111.273C311.959 111.272 310.886 111.037 309.953 110.569C309.021 110.088 308.301 109.427 307.796 108.586C307.29 107.746 307.038 106.792 307.039 105.726C307.041 104.672 307.288 103.726 307.783 102.886C308.291 102.034 308.978 101.375 309.845 100.909C310.726 100.43 311.713 100.191 312.806 100.193C313.833 100.194 314.766 100.415 315.605 100.856C316.445 101.284 317.111 101.911 317.603 102.738C318.109 103.552 318.361 104.519 318.359 105.639L310.398 107.17C310.624 107.703 310.976 108.104 311.456 108.371C311.949 108.638 312.549 108.772 313.256 108.773ZM312.803 102.553C312.017 102.552 311.376 102.804 310.882 103.31C310.388 103.816 310.128 104.516 310.1 105.409L315.341 104.396C315.195 103.836 314.896 103.388 314.443 103.055C313.99 102.721 313.443 102.553 312.803 102.553ZM324.31 111.287C323.096 111.285 322.15 110.964 321.471 110.323C320.792 109.669 320.453 108.749 320.454 107.562L320.468 96.282L323.588 96.2858L323.575 107.386C323.574 107.839 323.687 108.193 323.913 108.446C324.153 108.687 324.486 108.807 324.913 108.807C325.073 108.808 325.233 108.788 325.393 108.748C325.566 108.708 325.7 108.662 325.793 108.609L325.93 111.029C325.41 111.201 324.87 111.287 324.31 111.287Z" fill="#E57373"/>
</svg>
